# xmcd
#
# Track frame offsets:
#	150
#	15507
#	27330
#	45717
#	58500
#	70377
#	86437
#	99770
#	123327
#	144155
#	160500
#	175115
#	185342
#	200235
#
# Disc length: 2918 seconds
#
# Revision: 1
# Processed by: cddbd v1.5PL3 Copyright (c) Steve Scherf et al.
# Submitted via: CDex 1.50Beta5
#
DISCID=ae0b640e
DTITLE=Anyone - Sounnd Of Andes (Disc1)
DYEAR=1900
DGENRE=
TTITLE0=El Condor Paso
TTITLE1=Raza Brava
TTITLE2=Virgenes Del Sol
TTITLE3=Valicha
TTITLE4=Q'ori Canastita
TTITLE5=Brisas Del Titicaca
TTITLE6=Carnaval Humahuaqueno
TTITLE7=Kusillu
TTITLE8=Taque Santun Arupa
TTITLE9=Choco Lulu
TTITLE10=Alborozo Colla
TTITLE11=Korti Poncho
TTITLE12=Suenos
TTITLE13=Waca Waca Tradicional
EXTD=
EXTT0=
EXTT1=
EXTT2=
EXTT3=
EXTT4=
EXTT5=
EXTT6=
EXTT7=
EXTT8=
EXTT9=
EXTT10=
EXTT11=
EXTT12=
EXTT13=
PLAYORDER=
